<svg width="178" height="178" viewBox="0 0 178 178" fill="none" xmlns="http://www.w3.org/2000/svg">
<path fill-rule="evenodd" clip-rule="evenodd" d="M111.78 56.0371C100.259 53.8103 91.4592 51.6903 89.5258 51.2103L89.5125 51.0636L89.4991 51.0236C91.5259 50.5969 101.473 48.7036 112.26 49.6902C131.728 51.477 129.475 25.2361 113.967 29.7963C119.607 15.0091 97.7929 9.07565 94.046 28.4495C91.8059 40.0499 89.6591 48.8769 89.2058 50.7303C89.1658 50.7169 89.1258 50.7169 89.0858 50.7169L89.0325 50.7303C88.6191 48.7169 86.7124 38.77 87.699 27.9696C89.4858 8.50232 63.2446 10.7557 67.8048 26.2628C53.0041 20.6226 47.0838 42.4233 66.458 46.1701C78.0453 48.4235 86.8724 50.5569 88.7391 51.0102C88.7258 51.0503 88.7125 51.1037 88.7258 51.1437V51.197C86.6724 51.6237 76.7385 53.517 65.9647 52.5303C46.5105 50.7436 48.7506 76.9844 64.2579 72.4242C58.6177 87.2114 80.4321 93.1316 84.1789 73.7577C86.1657 63.5573 88.0591 55.4904 88.7925 52.437C89.0991 58.4505 88.4858 64.4774 87.2457 70.3441C85.9257 76.651 83.9389 82.8112 81.8588 88.9448C79.6854 95.0383 77.6853 101.425 76.8585 108.012C75.9652 114.599 76.1119 121.385 77.4053 127.973V127.986L77.4186 128.053C77.6586 129.08 78.6853 129.72 79.7121 129.48C80.7521 129.227 81.3922 128.2 81.1521 127.173C79.7121 121.039 79.3121 114.679 79.9254 108.372C80.2187 105.212 80.7521 102.065 81.4855 98.9584C82.2055 95.8383 83.1522 92.7848 84.0856 89.6514C85.939 83.4113 87.699 77.1045 88.7791 70.6376C89.6591 65.4641 90.0592 60.1972 89.8191 54.9571C90.4592 59.2239 91.2326 66.5174 90.5259 74.251C88.7391 93.7049 114.994 91.4649 110.434 75.9577C125.22 81.5979 131.155 59.7839 111.78 56.0371Z" fill="white"/>
<path d="M65.2043 141.573V148.9H64.5829L61.6938 143.147H61.642V148.9H61V141.573H61.6213L64.5208 147.34H64.5726V141.573H65.2043ZM68.9121 146.653V143.405H69.523V148.9H68.9121V147.97H68.8706C68.7774 148.248 68.6325 148.486 68.4357 148.682C68.239 148.875 67.9905 148.971 67.6901 148.971C67.4417 148.971 67.2207 148.897 67.0274 148.746C66.8341 148.594 66.6823 148.364 66.5718 148.06C66.4613 147.751 66.4061 147.363 66.4061 146.897V143.405H67.0171V146.839C67.0171 147.24 67.0982 147.559 67.2604 147.798C67.4243 148.037 67.6332 148.156 67.8869 148.156C68.0388 148.156 68.1933 148.102 68.3503 147.995C68.5091 147.887 68.642 147.723 68.749 147.501C68.8577 147.28 68.9121 146.997 68.9121 146.653ZM67.6901 142.66L68.3218 141H69.0364L68.2286 142.66H67.6901ZM70.6421 148.9V143.405H71.2323V144.263H71.2841C71.3669 143.97 71.5007 143.742 71.6853 143.579C71.87 143.415 72.0918 143.332 72.3507 143.332C72.613 143.332 72.8314 143.415 73.0056 143.579C73.1817 143.742 73.3189 143.97 73.4172 144.263H73.4587C73.5605 143.979 73.7133 143.754 73.9169 143.587C74.1205 143.417 74.3648 143.332 74.6496 143.332C75.0051 143.332 75.2959 143.487 75.5219 143.794C75.7481 144.1 75.8611 144.575 75.8611 145.222V148.9H75.2501V145.222C75.2501 144.816 75.1699 144.526 75.0094 144.353C74.8489 144.178 74.6599 144.091 74.4424 144.091C74.1628 144.091 73.9462 144.208 73.7926 144.442C73.639 144.673 73.5622 144.966 73.5622 145.322V148.9H72.9409V145.136C72.9409 144.824 72.8676 144.572 72.7208 144.381C72.5742 144.188 72.3852 144.091 72.1539 144.091C71.9951 144.091 71.8467 144.149 71.7086 144.267C71.5723 144.384 71.4618 144.546 71.3773 144.753C71.2944 144.958 71.253 145.196 71.253 145.465V148.9H70.6421ZM78.6454 149.014C78.2622 149.014 77.9317 148.897 77.6539 148.664C77.3777 148.428 77.1646 148.098 77.0144 147.677C76.866 147.252 76.7918 146.758 76.7918 146.195C76.7918 145.632 76.866 145.136 77.0144 144.707C77.1646 144.275 77.3734 143.939 77.6409 143.698C77.9101 143.454 78.2243 143.332 78.5832 143.332C78.7903 143.332 78.9949 143.38 79.1968 143.476C79.3987 143.571 79.5825 143.726 79.7482 143.941C79.9139 144.154 80.0459 144.435 80.1443 144.785C80.2427 145.136 80.2919 145.568 80.2919 146.081V146.438H77.2267V145.709H79.6706C79.6706 145.399 79.6257 145.122 79.5359 144.878C79.4479 144.635 79.3219 144.443 79.1579 144.302C78.9957 144.162 78.8041 144.091 78.5832 144.091C78.3399 144.091 78.1293 144.175 77.9516 144.342C77.7756 144.506 77.64 144.721 77.5451 144.986C77.4502 145.25 77.4027 145.534 77.4027 145.837V146.324C77.4027 146.739 77.4545 147.091 77.5581 147.379C77.6634 147.666 77.8092 147.884 77.9956 148.034C78.182 148.182 78.3986 148.256 78.6454 148.256C78.8059 148.256 78.9508 148.225 79.0803 148.163C79.2115 148.098 79.3245 148.003 79.4194 147.877C79.5144 147.748 79.5877 147.588 79.6395 147.397L80.2297 147.626C80.1676 147.903 80.0632 148.146 79.9165 148.356C79.7698 148.563 79.5885 148.726 79.3728 148.843C79.1571 148.957 78.9146 149.014 78.6454 149.014ZM81.2212 148.9V143.405H81.8115V144.234H81.8529C81.9254 143.962 82.0565 143.742 82.2464 143.573C82.4362 143.403 82.6503 143.318 82.8884 143.318C82.9333 143.318 82.9894 143.32 83.0567 143.322C83.124 143.324 83.1749 143.328 83.2095 143.332V144.191C83.1888 144.185 83.1413 144.174 83.0671 144.16C82.9946 144.143 82.9178 144.134 82.8367 144.134C82.6433 144.134 82.4707 144.191 82.3189 144.302C82.1688 144.412 82.0497 144.565 81.9617 144.761C81.8753 144.954 81.8322 145.174 81.8322 145.422V148.9H81.2212ZM85.428 149.014C85.0691 149.014 84.7541 148.897 84.4831 148.66C84.2139 148.424 84.0034 148.094 83.8515 147.669C83.7013 147.244 83.6262 146.748 83.6262 146.18C83.6262 145.609 83.7013 145.108 83.8515 144.682C84.0034 144.254 84.2139 143.923 84.4831 143.687C84.7541 143.451 85.0691 143.332 85.428 143.332C85.7871 143.332 86.1012 143.451 86.3704 143.687C86.6414 143.923 86.8519 144.254 87.0021 144.682C87.154 145.108 87.2299 145.609 87.2299 146.18C87.2299 146.748 87.154 147.244 87.0021 147.669C86.8519 148.094 86.6414 148.424 86.3704 148.66C86.1012 148.897 85.7871 149.014 85.428 149.014ZM85.428 148.256C85.7007 148.256 85.9251 148.159 86.1012 147.966C86.2772 147.773 86.4075 147.519 86.4921 147.204C86.5767 146.889 86.6189 146.548 86.6189 146.18C86.6189 145.814 86.5767 145.471 86.4921 145.154C86.4075 144.837 86.2772 144.58 86.1012 144.385C85.9251 144.189 85.7007 144.091 85.428 144.091C85.1554 144.091 84.931 144.189 84.755 144.385C84.5789 144.58 84.4486 144.837 84.3641 145.154C84.2795 145.471 84.2372 145.814 84.2372 146.18C84.2372 146.548 84.2795 146.889 84.3641 147.204C84.4486 147.519 84.5789 147.773 84.755 147.966C84.931 148.159 85.1554 148.256 85.428 148.256ZM91.7144 149.014C91.383 149.014 91.0904 148.899 90.8367 148.667C90.5831 148.434 90.3846 148.105 90.2413 147.68C90.0981 147.253 90.0265 146.749 90.0265 146.166C90.0265 145.589 90.0981 145.088 90.2413 144.664C90.3846 144.239 90.5839 143.911 90.8394 143.68C91.0948 143.448 91.3899 143.332 91.7247 143.332C91.9836 143.332 92.1881 143.392 92.3383 143.511C92.4901 143.629 92.6058 143.762 92.6852 143.913C92.7663 144.06 92.8293 144.182 92.8742 144.277H92.9259V141.573H93.5369V148.9H92.9466V148.055H92.8742C92.8293 148.156 92.7654 148.282 92.6826 148.435C92.5997 148.585 92.4815 148.72 92.3279 148.84C92.1743 148.956 91.9698 149.014 91.7144 149.014ZM91.7972 148.256C92.0423 148.256 92.2494 148.168 92.4185 147.992C92.5877 147.813 92.7162 147.566 92.8042 147.251C92.8923 146.934 92.9363 146.568 92.9363 146.152C92.9363 145.742 92.8931 145.383 92.8068 145.076C92.7206 144.765 92.5928 144.524 92.4237 144.353C92.2546 144.178 92.0458 144.091 91.7972 144.091C91.5383 144.091 91.3226 144.183 91.15 144.367C90.9791 144.548 90.8505 144.795 90.7643 145.107C90.6797 145.417 90.6374 145.766 90.6374 146.152C90.6374 146.543 90.6806 146.898 90.7668 147.218C90.8549 147.536 90.9843 147.788 91.1551 147.977C91.3277 148.163 91.5418 148.256 91.7972 148.256ZM95.9108 149.028C95.6588 149.028 95.4302 148.963 95.2248 148.832C95.0194 148.699 94.8563 148.506 94.7355 148.256C94.6147 148.003 94.5543 147.698 94.5543 147.34C94.5543 147.025 94.5992 146.77 94.6889 146.574C94.7786 146.376 94.8986 146.222 95.0487 146.109C95.1989 145.997 95.3646 145.913 95.5458 145.859C95.7288 145.802 95.9125 145.756 96.0972 145.723C96.3389 145.68 96.5345 145.647 96.6852 145.626C96.837 145.602 96.947 145.563 97.0163 145.508C97.0867 145.453 97.1226 145.358 97.1226 145.222V145.193C97.1226 144.84 97.0527 144.566 96.913 144.37C96.7745 144.175 96.5649 144.077 96.2836 144.077C95.9919 144.077 95.7633 144.165 95.5975 144.342C95.4319 144.518 95.3154 144.707 95.2481 144.907L94.6682 144.62C94.7718 144.287 94.9098 144.027 95.0824 143.84C95.2567 143.652 95.4466 143.521 95.6519 143.447C95.859 143.371 96.0627 143.332 96.263 143.332C96.3905 143.332 96.5375 143.354 96.7028 143.397C96.8705 143.437 97.0321 143.522 97.187 143.652C97.3443 143.78 97.4743 143.975 97.5782 144.234C97.6815 144.495 97.7331 144.843 97.7331 145.28V148.9H97.1226V148.156H97.0916C97.0497 148.275 96.981 148.403 96.8844 148.539C96.7878 148.675 96.659 148.79 96.4987 148.886C96.3377 148.981 96.1421 149.028 95.9108 149.028ZM96.004 148.27C96.2459 148.27 96.4495 148.205 96.6147 148.074C96.7824 147.942 96.9081 147.773 96.9932 147.566C97.0794 147.358 97.1226 147.139 97.1226 146.911V146.138C97.0965 146.18 97.0394 146.22 96.9513 146.256C96.865 146.29 96.7654 146.319 96.6512 146.345C96.5388 146.369 96.4294 146.39 96.3225 146.41C96.2174 146.426 96.1317 146.441 96.0662 146.453C95.9074 146.481 95.759 146.528 95.6209 146.592C95.4846 146.654 95.374 146.748 95.2895 146.875C95.2067 146.999 95.1652 147.168 95.1652 147.383C95.1652 147.677 95.2438 147.898 95.4008 148.049C95.5596 148.196 95.7607 148.27 96.004 148.27ZM103.715 144.635L103.167 144.85C103.132 144.724 103.081 144.6 103.014 144.481C102.949 144.359 102.859 144.259 102.744 144.18C102.631 144.102 102.485 144.063 102.307 144.063C102.064 144.063 101.861 144.14 101.699 144.296C101.539 144.447 101.458 144.642 101.458 144.878C101.458 145.088 101.513 145.254 101.624 145.376C101.734 145.497 101.907 145.599 102.141 145.68L102.732 145.88C103.087 145.999 103.352 146.182 103.526 146.427C103.701 146.671 103.788 146.985 103.788 147.369C103.788 147.683 103.723 147.965 103.591 148.213C103.462 148.461 103.28 148.657 103.048 148.8C102.814 148.943 102.543 149.014 102.235 149.014C101.829 149.014 101.494 148.892 101.228 148.65C100.962 148.406 100.794 148.051 100.723 147.583L101.303 147.383C101.358 147.678 101.463 147.901 101.616 148.049C101.771 148.196 101.974 148.27 102.224 148.27C102.509 148.27 102.735 148.187 102.902 148.02C103.072 147.85 103.156 147.648 103.156 147.411C103.156 147.221 103.108 147.061 103.011 146.932C102.915 146.801 102.766 146.704 102.566 146.639L101.903 146.424C101.539 146.305 101.272 146.12 101.101 145.87C100.932 145.616 100.847 145.301 100.847 144.921C100.847 144.611 100.91 144.337 101.036 144.098C101.164 143.86 101.337 143.673 101.556 143.536C101.777 143.4 102.028 143.332 102.307 143.332C102.701 143.332 103.009 143.452 103.234 143.69C103.46 143.929 103.62 144.244 103.715 144.635ZM106.323 149.014C105.964 149.014 105.649 148.897 105.378 148.66C105.109 148.424 104.898 148.094 104.746 147.669C104.596 147.244 104.521 146.748 104.521 146.18C104.521 145.609 104.596 145.108 104.746 144.682C104.898 144.254 105.109 143.923 105.378 143.687C105.649 143.451 105.964 143.332 106.323 143.332C106.682 143.332 106.996 143.451 107.266 143.687C107.536 143.923 107.747 144.254 107.897 144.682C108.049 145.108 108.125 145.609 108.125 146.18C108.125 146.748 108.049 147.244 107.897 147.669C107.747 148.094 107.536 148.424 107.266 148.66C106.996 148.897 106.682 149.014 106.323 149.014ZM106.323 148.256C106.595 148.256 106.82 148.159 106.996 147.966C107.172 147.773 107.303 147.519 107.387 147.204C107.471 146.889 107.514 146.548 107.514 146.18C107.514 145.814 107.471 145.471 107.387 145.154C107.303 144.837 107.172 144.58 106.996 144.385C106.82 144.189 106.595 144.091 106.323 144.091C106.051 144.091 105.826 144.189 105.65 144.385C105.474 144.58 105.343 144.837 105.259 145.154C105.174 145.471 105.132 145.814 105.132 146.18C105.132 146.548 105.174 146.889 105.259 147.204C105.343 147.519 105.474 147.773 105.65 147.966C105.826 148.159 106.051 148.256 106.323 148.256ZM109.058 148.9V143.405H109.648V144.234H109.689C109.762 143.962 109.893 143.742 110.083 143.573C110.273 143.403 110.487 143.318 110.725 143.318C110.77 143.318 110.826 143.32 110.893 143.322C110.96 143.324 111.011 143.328 111.045 143.332V144.191C111.025 144.185 110.977 144.174 110.903 144.16C110.831 144.143 110.754 144.134 110.673 144.134C110.48 144.134 110.307 144.191 110.155 144.302C110.005 144.412 109.886 144.565 109.798 144.761C109.711 144.954 109.668 145.174 109.668 145.422V148.9H109.058ZM113.748 143.405V144.12H111.688V143.405H113.748ZM112.288 142.087H112.9V147.326C112.9 147.564 112.924 147.743 112.974 147.862C113.026 147.979 113.092 148.058 113.171 148.098C113.252 148.137 113.338 148.156 113.428 148.156C113.495 148.156 113.55 148.151 113.593 148.142C113.636 148.129 113.671 148.12 113.697 148.112L113.821 148.871C113.779 148.892 113.722 148.914 113.647 148.936C113.573 148.96 113.479 148.971 113.366 148.971C113.192 148.971 113.024 148.92 112.858 148.818C112.694 148.715 112.558 148.559 112.449 148.349C112.342 148.139 112.288 147.874 112.288 147.555V142.087ZM116.292 149.014C115.909 149.014 115.578 148.897 115.3 148.664C115.024 148.428 114.811 148.098 114.661 147.677C114.513 147.252 114.438 146.758 114.438 146.195C114.438 145.632 114.513 145.136 114.661 144.707C114.811 144.275 115.02 143.939 115.288 143.698C115.557 143.454 115.871 143.332 116.23 143.332C116.437 143.332 116.641 143.38 116.844 143.476C117.045 143.571 117.229 143.726 117.395 143.941C117.56 144.154 117.692 144.435 117.791 144.785C117.889 145.136 117.938 145.568 117.938 146.081V146.438H114.873V145.709H117.317C117.317 145.399 117.272 145.122 117.183 144.878C117.094 144.635 116.969 144.443 116.805 144.302C116.642 144.162 116.45 144.091 116.23 144.091C115.986 144.091 115.776 144.175 115.598 144.342C115.422 144.506 115.286 144.721 115.192 144.986C115.097 145.25 115.05 145.534 115.05 145.837V146.324C115.05 146.739 115.101 147.091 115.204 147.379C115.31 147.666 115.456 147.884 115.642 148.034C115.828 148.182 116.045 148.256 116.292 148.256C116.452 148.256 116.597 148.225 116.727 148.163C116.858 148.098 116.971 148.003 117.066 147.877C117.161 147.748 117.234 147.588 117.286 147.397L117.876 147.626C117.814 147.903 117.71 148.146 117.563 148.356C117.416 148.563 117.235 148.726 117.019 148.843C116.803 148.957 116.561 149.014 116.292 149.014Z" fill="white"/>
</svg>
